<svg xmlns="http://www.w3.org/2000/svg" width="402.806" height="292.635" viewBox="0 0 402.806 292.635">
  <g id="Group_1" data-name="Group 1" transform="translate(-518.987 -326.224)">
    <path id="Path_1" data-name="Path 1" d="M717.29,188.923v-3.034c-17.478-1.746-34.5-2.506-50.9-1.342a9.3,9.3,0,0,0,2.415-2.072c2.53-3.1,2.469-7.537-.162-12.173-5.275-9.288-20.032-17.815-37-15.311-2.506.369-6.992,4.129-14.182,11.221-12.589-13.52-23.244-33.74-31.769-49.914-9.794-18.588-15.61-29.143-21.231-29.94a7.965,7.965,0,0,0-1.1-.075c-3.762,0-8.3,2.575-13.815,7.834a98.35,98.35,0,0,0-7.565,8.212c-9.077-7.543-19-9.963-26.737-6.468-3.712,1.676-7.815,5.067-10.776,11.8q-3.489-.152-7.053-.1-3.587.05-7.071.3c-19.418-4.187-38.863-2.34-54.386,5.533a61.81,61.81,0,0,0-15.916,11.522c-4.816-11.258-10.388-18.863-17.148-20-6.239-1.055-12.4,3.465-18.838,13.82-9.431,15.173-6.8,32.227,7.6,49.32a99.724,99.724,0,0,0,8.181,8.55,66.589,66.589,0,0,0,2.782,20.126q-2.1,1.958-4.1,3.925-2.031.4-4.065.824a194.03,194.03,0,0,0-21.961,5.678c-19.282.186-38.711-.74-58.009-2.273v3.031c16.788,1.33,33.679,2.2,50.493,2.279-5.452,2.741-5.788,4.743-5.951,5.7-.685,4.071,4.962,6.37,9.271,7.744a31.22,31.22,0,0,0,11.816,1.129,11.764,11.764,0,0,0-.614,3.177c-.387,10.8,2.918,19.109,9.823,24.7a35.273,35.273,0,0,0,12.826,6.29c-2.51,2.658-5.139,5.092-7.547,7.321-6.513,6.027-11.658,10.789-10.138,15.7,1.65,5.333,10.541,10.038,48.571,15.661,9.321,1.379,21.932,1.521,35.173.16,8.432,12.445,19.22,19.835,45.5,16.141,10.031-1.41,20.208-5.736,29.271-12.171a6.9,6.9,0,0,0,1.116.883c12.862,8.005,22.221,9.9,28.617,5.789,11.972-7.695,8.531-34.335,6.475-50.253-.185-1.432-.357-2.764-.5-3.966-.063-.53-.125-1.048-.182-1.559a49.524,49.524,0,0,0,2.5-6.98c16.734-.753,31.6-4.175,39.574-14.516,6.336-8.219,7.682-19.792,4.054-35.212C653.024,185.832,684.306,185.615,717.29,188.923ZM551.63,96.3c6.579-6.273,10.389-7.246,12.412-6.956,4.37.619,11.47,14.094,18.988,28.359,8.619,16.356,19.379,36.774,32.308,50.625q-2.212,2.218-4.735,4.8c-9.209-9.488-23-22.515-38.286-36.826-4.5-4.21-8.882-8.318-12.456-11.715-.263-3.272-1.089-6.031-2.818-7.717a6.258,6.258,0,0,0-3.962-1.775,56.614,56.614,0,0,0-8.858-10.779A97.1,97.1,0,0,1,551.63,96.3ZM593.3,207.673q-1.12-.386-2.428-.7a26.339,26.339,0,0,0-8.664-.542c7.671-7.555,15.182-15.328,22.037-22.421,2.126-2.2,4.263-4.411,6.36-6.567,4.862,5.1,8.171,9.008,8.719,10.711q.975,3.029,1.728,5.872a129.771,129.771,0,0,0-18.427,8.681C599.4,204.549,596.284,206.184,593.3,207.673Zm3.679,6.794c.317,4.219-7.518,10.389-13.771,14.428a94,94,0,0,0-.806-12.747l1.061-.487c3.128-1.435,6.468-2.969,10-4.7C595.329,211.758,596.857,212.89,596.975,214.467Zm-32.54-34.85c1.124,3.671,2.063,7.365,2.837,11.047-3.043,2.091-6.23,4.141-9.4,6.178-1.39.895-2.773,1.784-4.136,2.671-2.321-2.348-4.828-4.672-7.457-7.017a74.4,74.4,0,0,0,9.948-15.2q1.646-1.8,3.237-3.56Q562.1,176.612,564.435,179.616Zm-4.444-11.684.069-.225c.03.068.057.133.086.2Zm13.167,77.9c.552,0,1.1,0,1.654-.009q.228,2.907.584,6.159a42.115,42.115,0,0,1-2.718,5A49.171,49.171,0,0,0,573.158,245.832Zm-.5-4.214q.223-2.3.392-4.583c.467-.12.926-.246,1.372-.379q0,2.821.189,6.155-.883.008-1.77.008Q572.754,242.217,572.656,241.617Zm1.839-8.141c-.4.135-.815.262-1.237.384q.333-5.708.323-11.269a29.629,29.629,0,0,0,2.69,1.716Q574.792,227.322,574.495,233.476Zm-1.009-16.429c-.008-.231-.016-.464-.025-.7q.075-.811.144-1.623,2.4-2.258,4.8-4.581.393,2.132.7,4.2C577.1,215.275,575.226,216.164,573.486,217.048Zm3.467-9.713q-1.461.357-2.929.82.279-6.216.107-12.434a58.357,58.357,0,0,1,3.564,10.893C577.45,206.853,577.2,207.1,576.953,207.335Zm-3.365-21.28a161.505,161.505,0,0,0-2.6-18.267,1.521,1.521,0,0,0-1.663-1.2c-1.2.15-2.562.331-4.064.546,5.091-6.009,9.212-11.581,11.409-16.407,4.622,2.7,7.921,5.839,9.237,9.475C589.558,170.294,583.155,178.534,573.588,186.055Zm-59.852,93.888c1.381.173,2.758.32,4.121.438a74.64,74.64,0,0,1-9.12,4.57,1.5,1.5,0,0,0-.553-.781q-.727-.532-1.468-1.078A47.1,47.1,0,0,0,513.736,279.943Zm-9.982.944q-.847-.636-1.71-1.289l-.191-.163a46.021,46.021,0,0,0,5.369-.492q.636.116,1.27.224A40.691,40.691,0,0,1,503.754,280.887Zm11.112-7.873a17.371,17.371,0,0,1-7.487,2.842c-3.894-.717-7.83-1.637-11.763-2.746a40.924,40.924,0,0,1-5.313-8.275c10.826-4.491,20.517-8.125,24.709-6.26a3.409,3.409,0,0,1,1.911,2.146C518.926,266.442,518.253,270.463,514.866,273.014Zm-61.2-5.976q-.93-1.422-1.921-2.859-1.768-2.561-3.407-5.031c2.3-.347,4.61-.728,6.906-1.133q5.369,3.5,11.225,6.6a44.338,44.338,0,0,0,2.74,5.564q-1.331.5-2.665.98C461.567,269.8,457.1,268.353,453.67,267.038Zm8.029,5.78q-1.878.609-3.744,1.15-.85-1.446-1.753-2.924C457.9,271.627,459.743,272.224,461.7,272.818ZM411.951,188.4c-.05-.615-.09-1.226-.122-1.828.4.3.806.6,1.212.9C412.678,187.784,412.315,188.091,411.951,188.4Zm1.011,3.1c-.007.165-.014.334-.021.5-.167.241-.329.482-.483.72q-.053-.347-.1-.692Zm-.67,13.519-.448.045a15.893,15.893,0,0,1-.019-1.6Q412.049,204.248,412.292,205.024Zm.974,2.936q.407,1.162.851,2.333-.546.282-1.092.56c-.291-.937-.549-1.863-.751-2.79Zm.373-23.789q-.948-.709-1.873-1.422a47.253,47.253,0,0,1,8.427-26.559q-.312,3.68-.342,7.994A61.923,61.923,0,0,0,413.639,184.171Zm45.34-53.268c4.943.244,10.413.718,16.419,1.283q-.445.583-.85,1.165c-18.629.359-34.47,6.667-45.686,18.353q-.413-1.542-.832-3.055.668-1.339,1.417-2.657C437.394,139.156,447.744,134.071,458.979,130.9Zm-24.409,7.482a74.259,74.259,0,0,1,5.844-6.592,50.04,50.04,0,0,1,9.059-1.02A80.631,80.631,0,0,0,434.57,138.385Zm84.921,10.542q4,.14,7.817.618a123.607,123.607,0,0,1,11.222,6.545q-1.17.347-2.354.724c-6.445,2.048-12.855,3.817-19.208,5.415A60.371,60.371,0,0,0,519.491,148.927Zm-1.137-16.041q.574.243,1.141.5l-1.051-.125C518.415,133.135,518.385,133.009,518.354,132.886Zm39.689,30.863q-.345,1.36-.759,2.728c-.059.2-.121.392-.181.587a115.3,115.3,0,0,0-11.6-9.753q1.817-.457,3.556-.856A37.736,37.736,0,0,1,558.043,163.75Zm-1.216-8.986q1.482-.311,2.858-.606-.2,2.292-.593,4.621Q558,156.737,556.827,154.763Zm12.859,25.263a45.729,45.729,0,0,0-3.665-9.959q1.182-.164,2.285-.308,1.179,6.13,1.874,12.412Q569.95,181.1,569.686,180.027Zm.274,29.579-.387.155c.109-.361.211-.723.311-1.086C569.91,208.983,569.936,209.3,569.96,209.605Zm-1.35-11.61a44.835,44.835,0,0,1-2.622,13.324l-.561.261c-3.273-3.177-6.565-6.617-9.445-9.729l-.116-.124q1.8-1.171,3.642-2.351c2.819-1.814,5.656-3.639,8.4-5.5Q568.293,195.943,568.61,197.995Zm-4.086,41.2c-.1-.245-.2-.486-.294-.726q1.363-.119,2.658-.284c-.048.2-.094.406-.143.608C566.005,238.892,565.264,239.027,564.525,239.2Zm1.429,2.784-.038.145L565.85,242Zm-2.649-6.426a10.958,10.958,0,0,1-.006-5.81,8.769,8.769,0,0,1,1.109-2.308,76.114,76.114,0,0,1,1.966,7.8Q564.883,235.43,563.3,235.555Zm-.157-19.474c.342-.178.685-.354,1.028-.528q-.321.651-.662,1.284C563.393,216.585,563.271,216.331,563.148,216.081ZM519.77,259.725a6.408,6.408,0,0,0-3.531-3.906c-5.322-2.365-14.922,1.176-27.127,6.245a35.428,35.428,0,0,1-2.3-10.913l.476-.117q3.847.231,7.68.231a118,118,0,0,0,23.873-2.378,57.951,57.951,0,0,0,5.083,3.5,16.253,16.253,0,0,0,6.852,2.306c.171,1.773.36,3.565.569,5.359a64.5,64.5,0,0,1-9.1,10.133q-1.431,1.28-2.9,2.433C521.485,269.362,521.631,265.043,519.77,259.725Zm-36.489,4.78c-3.684-3.149-7.408-6.458-11.1-9.9,4.015-.895,7.913-1.815,11.639-2.72a38.211,38.211,0,0,0,2.48,11.355l-1.624.681Zm1.2,4.952c-.909-.34-1.811-.688-2.716-1.048l.984-.41Q483.613,268.733,484.476,269.457Zm-67.512-60.67q-.092-.606-.177-1.211c1.011-.115,2.014-.233,3.023-.357Q418.391,208.018,416.964,208.787Zm.231,14.537q-.158.195-.314.389c-.2-1.076-.435-2.11-.7-3.1l.323.357Q416.838,222.149,417.2,223.324Zm7.036-15.263a39.688,39.688,0,0,0,.519,7.59q-1.823,1.571-3.439,3.168a74.909,74.909,0,0,1-3.389-7.112l-.039-.093C420.12,210.414,422.249,209.217,424.232,208.062Zm89.233-62.137c-2.543.061-5.125.211-7.721.441a43.393,43.393,0,0,1-1.606-5.947c3.539.991,7.028,2.146,10.444,3.446C514.2,144.555,513.833,145.24,513.465,145.925Zm1.854,2.943c.382,0,.761,0,1.142,0A57.447,57.447,0,0,1,514,161.4c-1.031-1.373-2.009-2.772-2.921-4.2C512.39,154.509,513.811,151.718,515.319,148.868Zm-3.458.077c-.912,1.742-1.792,3.466-2.633,5.156a51.1,51.1,0,0,1-2.374-4.854Q509.376,149.042,511.861,148.945ZM509.589,160.3q1.095,1.615,2.281,3.178-2.1.5-4.186.986Q508.582,162.445,509.589,160.3Zm2.486,6.223a37.482,37.482,0,0,1-10.085,13.963,69.559,69.559,0,0,1,4.215-12.593Q509.117,167.231,512.075,166.526Zm41.456-16.943a96.285,96.285,0,0,0-6.823-8.877c2.806.586,5.568,1.219,8.252,1.9-.25,1.248-.491,2.4-.7,3.4C553.947,147.491,553.7,148.657,553.531,149.582Zm.666,6.632c-.318-.233-.641-.462-.968-.687l.492-.106Q553.962,155.817,554.2,156.215Zm-2.187-3.509q-1.2.261-2.466.546a50.773,50.773,0,0,0-6.974-3.176l-.195-.072a36.639,36.639,0,0,0-9.323-11.762c2.906.453,5.83.949,8.738,1.493A92.711,92.711,0,0,1,552.011,152.706Zm-7.023,1.626-.782.2c-.068-.214-.141-.427-.213-.64Q544.495,154.107,544.987,154.332Zm-4.056-.229q-2.12-1.417-4.317-2.758,1.862.5,3.643,1.108Q540.615,153.259,540.931,154.1Zm.843,4.193.458.324a36.215,36.215,0,0,1,.281,12.43c-5.153,1.01-10.712,2.176-16.525,3.5a122.681,122.681,0,0,1-8.865-9.257c6.613-1.654,13.327-3.495,19.965-5.605Q539.46,158.933,541.774,158.3ZM427.451,213.426q-.169-1.467-.221-2.861.492,1.138,1.018,2.24C427.98,213.01,427.714,213.219,427.451,213.426Zm.446,13.926q-1.468-1.137-2.85-2.32c-.757-1.142-1.486-2.3-2.182-3.474q1.226-1.239,2.562-2.446A69.876,69.876,0,0,0,427.9,227.352Zm1.757-11.783a49.779,49.779,0,0,0,17.012,18.608q1.717,1.1,3.509,2.047,2.406,2.778,4.913,5.5a98.705,98.705,0,0,1-22.728-11.151,70.42,70.42,0,0,1-4.364-13.671C428.536,216.453,429.093,216.007,429.654,215.568Zm2.5-10.086q3.813-.608,7.6-1.306l.059.032c.092.239.185.476.274.711q-3.238,1.887-6.145,3.816Q433.021,207.112,432.157,205.483Zm11.313,22.592A48.3,48.3,0,0,1,432.1,213.73c.312-.225.626-.451.942-.674A157.958,157.958,0,0,0,443.47,228.074Zm-9.664-25.919,1.043-.682.69.389C434.961,201.961,434.386,202.058,433.806,202.155Zm3.883-2.58.161-.109.116.262ZM439.3,194.9c-.473-1.55-1.008-3.632-1.6-6.112,5.541-4.148,13.053-7.274,21.986-9.97A221.962,221.962,0,0,1,439.3,194.9Zm3.412,1.174a210.717,210.717,0,0,0,23.249-19.028l.815-.215c-1.244,3-2.255,5.483-3.095,7.542-3.828,9.394-3.828,9.394-6.152,10.238a31.45,31.45,0,0,0-4.842,2.166Q447.84,196.356,442.716,196.077Zm5.365,3.359q-3.192.687-6.405,1.307-.354-.855-.738-1.74Q444.579,199.184,448.081,199.436Zm16.41-25.112c-11.145,3-20.588,6.433-27.534,11.279-.467-2.029-.966-4.242-1.493-6.587q-.377-1.672-.756-3.339,1.422-1.051,2.956-2.148a120.264,120.264,0,0,1,21.46-11.957,69.282,69.282,0,0,1,10.11-3.2,60.156,60.156,0,0,1-.4,11.43C467.537,171.248,466.083,172.761,464.491,174.324ZM435.12,190.934c.471,1.911.9,3.543,1.3,4.856q-2.1-.075-4.251-.131c-.275-.007-.652.005-1.132.034A25.731,25.731,0,0,1,435.12,190.934Zm-3.121,8.9c-.672.436-1.344.867-2.021,1.3-.292-.619-.579-1.242-.855-1.862.058-.137.118-.274.179-.409.322-.032.621-.06.9-.084Q431.094,199.31,432,199.837Zm-.516,10.584c-.256.18-.512.362-.763.543q-1.108-2.377-2.053-4.943l.377-.057C429.817,207.454,430.633,208.944,431.483,210.421ZM452,233.777a167.979,167.979,0,0,1-16.5-22.408q2.72-1.809,5.665-3.542c.735,2.072,1.356,3.971,1.918,5.692,3.383,10.354,5.3,16.213,18.52,20.21q-.051,1.887-.021,3.825A51.777,51.777,0,0,1,452,233.777Zm9.679,6.927.008.176q.075,1.5.191,2.951c-.315-.087-.63-.176-.944-.265q-2.1-2.177-4.142-4.4Q459.193,240.04,461.678,240.7Zm.062-10.076c-11.042-3.493-12.635-8.374-15.794-18.046-.615-1.879-1.3-3.968-2.121-6.264,6.465,3.337,13.275,6.537,20.362,9.56A70.757,70.757,0,0,0,461.741,230.628Zm-14.686-26.084q3.1-1.64,6.376-3.2c5.38-1.186,10.382.631,15.008,3.8a53.51,53.51,0,0,0-3.345,7.817C458.958,210.325,452.912,207.511,447.055,204.544ZM513.167,209q-1.36,1.177-2.747,2.332-1.373-.742-2.818-1.45,1.256-1.079,2.562-2.107A14.989,14.989,0,0,0,513.167,209Zm-.261-3.282a76.167,76.167,0,0,1,10.653-6.379c-2.39,2.4-4.93,4.8-7.564,7.171A12.559,12.559,0,0,1,512.906,205.717ZM470.9,206.969a103.93,103.93,0,0,1,10.982,10.813c.889.967,1.748,1.9,2.579,2.782-5.542-1.983-11.091-4.132-16.572-6.424A51.069,51.069,0,0,1,470.9,206.969Zm-2.376-5.275c.586.09,1.166.182,1.745.277-.125.2-.25.4-.372.6Q469.214,202.116,468.521,201.695Zm17.269,22.53q2.02.7,4.026,1.375c.1.071.191.141.285.208-9.113,5.271-16.547,7.605-21.272,6.621-1.483-.309-2.851-.625-4.118-.953A68.458,68.458,0,0,1,467,217.061Q476.125,220.854,485.79,224.225Zm13.884,4.51c5.236,1.576,10.361,2.973,15.331,4.186a14.891,14.891,0,0,0,.315,2.044q-3.167.867-6.41,1.625C505.706,233.774,502.6,231.054,499.674,228.735Zm5.583,8.661a128.4,128.4,0,0,1-17.317,2.459,49.043,49.043,0,0,1,4.845-12.127l.21-.126A118.086,118.086,0,0,1,505.257,237.4Zm9.769-7.561c-5.781-1.426-11.712-3.087-17.7-4.958,4.489-2.956,9.016-6.314,13.4-9.881a61.881,61.881,0,0,1,7.3,4.927A29.813,29.813,0,0,0,515.026,229.834Zm-7.161-16.414c-3.706,2.977-7.492,5.786-11.238,8.3a68.581,68.581,0,0,1,8.534-9.647Q506.545,212.733,507.865,213.421Zm-3.389-5a132.051,132.051,0,0,0-29.007-8.593,40.7,40.7,0,0,1,7.024-6.99q7.15-2.552,14.145-5.552,1.211-.52,2.351-1.134c1.325,10.483,4.63,16.452,8.462,19.747Q505.925,207.126,504.476,208.42Zm-2.417,2.254a68.378,68.378,0,0,0-10.139,12.462l-.647-.216a71.075,71.075,0,0,1-7.174-7.179,99.258,99.258,0,0,0-11.745-11.387q.558-.93,1.156-1.826A132.625,132.625,0,0,1,502.059,210.675Zm-29.933-11.446q-3.2-.546-6.562-1.011,4.957-1.392,9.848-2.973A44.734,44.734,0,0,0,472.126,199.229Zm-3.911,36.152a14.241,14.241,0,0,0,2.9.282c5.1,0,11.18-2.3,16.912-5.279a50.874,50.874,0,0,0-3.227,9.637,77.1,77.1,0,0,1-20.194-1.687c-.031-1.276-.034-2.539-.012-3.78Q466.3,234.981,468.215,235.381Zm19.1,7.522a133.426,133.426,0,0,0,20.76-3.036c.924.812,1.852,1.626,2.78,2.432-4.281.814-10.135,2.278-17.212,4.048-2.168.543-4.44,1.111-6.8,1.693l-.053,0A38.916,38.916,0,0,1,487.31,242.9Zm26.518,1.947q.974.822,1.94,1.611a114.28,114.28,0,0,1-17.332,1.8C505.04,246.616,510.314,245.357,513.829,244.85Zm.932-3.164c-1.024-.872-2.053-1.766-3.081-2.664q2.314-.568,4.588-1.194a14.606,14.606,0,0,0,2.092,3.526C517.117,241.438,515.915,241.548,514.76,241.686Zm3.376-8.021.969.223-.879.257C518.193,233.985,518.164,233.826,518.136,233.664Zm3.8,10.529a10.3,10.3,0,0,0,1.458.565q-1.871.494-3.779.921-.793-.623-1.6-1.277C519.273,244.306,520.584,244.238,521.936,244.193Zm8.136,1.684c.118,1.868.258,3.785.423,5.734a13.3,13.3,0,0,1-5.017-1.807c-.886-.533-1.805-1.138-2.745-1.8Q526.482,247.075,530.071,245.878Zm-7.417-4.721A9.034,9.034,0,0,1,519.2,237q3.012-.877,5.92-1.823,2.305.464,4.558.87c.024,1.621.073,3.328.148,5.1C527.341,241.1,524.945,241.1,522.654,241.157Zm2.258-9.085q-3.412-.7-6.914-1.523a25.177,25.177,0,0,1,2.43-8.612,44.926,44.926,0,0,1,7.824,9.007Q526.6,231.516,524.912,232.072Zm-5.459-14.929a64.469,64.469,0,0,0-6.225-4.217q1.939-1.633,3.824-3.307c.239.01.477.015.718.015a22.756,22.756,0,0,0,7.41-1.351A84.429,84.429,0,0,0,519.453,217.143Zm1.163-10.764c3.593-3.349,6.966-6.748,9.992-10.065q2.886-1.058,5.841-1.855c-2.615,2.968-5.125,5.919-7.445,8.826A26.778,26.778,0,0,1,520.616,206.379Zm13.9-14.531c.271-.325.54-.649.8-.971q.455.25.907.511Q535.366,191.606,534.515,191.848Zm-5.925-14.872c4.63-1.036,9.115-1.975,13.379-2.815-.589,2.63-2.454,6.087-5.253,10.01C533.978,181.8,531.244,179.411,528.59,176.976Zm-3.547.806c3.24,3.043,6.58,5.97,9.87,8.815-.121.157-.242.313-.365.47a57.135,57.135,0,0,0-22.678-6.06C516.338,179.85,520.744,178.775,525.043,177.782Zm7.564,11.691q-1.707,2.052-3.64,4.187a77.482,77.482,0,0,0-19.045,10.331c-4.311-3.373-7.065-9.945-8.084-19.442A51.912,51.912,0,0,1,532.607,189.473Zm-33.8-7.963c-4.09,1.175-8.2,2.419-12.273,3.732q-12.875,4.144-23.653,8.594c.869-1.631,1.9-4.166,3.6-8.322.9-2.2,1.989-4.88,3.353-8.162q.3-.718.553-1.433c6.518-1.614,13.56-3.14,20.971-4.745,3.642-.79,7.411-1.606,11.265-2.467A56.591,56.591,0,0,0,498.807,181.51Zm-29.675-27.069c-3.546,1.236-7.014,2.584-10.371,4.027-4.018,1.526-8.9,3.621-14.83,6.444a83.379,83.379,0,0,0-10.212,6.449c-1.274-5.507-2.585-10.949-3.946-16.2,10.331-11.54,25.215-17.962,42.889-18.727C469.418,142.537,469.041,148.548,469.132,154.441Zm-36.609,25.237c.655,2.912,1.253,5.571,1.8,7.93a29.293,29.293,0,0,0-5.9,6.56q-.914-.561-1.816-1.128a73.325,73.325,0,0,1-2.557-8.784c2.268-2.04,4.921-4.228,8.011-6.594Q432.3,178.691,432.523,179.678ZM422.9,227.17a99.05,99.05,0,0,0,10.76,13.181q3.951,7.695,9.583,16.494c-1.213.161-2.429.311-3.635.448-7.893-8.167-14.4-19.273-18.6-31.8Q421.937,226.34,422.9,227.17Zm22.143,32.453q1.642,2.5,3.418,5.1a10.535,10.535,0,0,1-.954-.591,53.853,53.853,0,0,1-5.143-4.155Q443.7,259.806,445.045,259.623Zm-4.217-12.471a127.59,127.59,0,0,0,10.819,8.434c-1.7.283-3.412.552-5.115.8Q443.427,251.592,440.827,247.152Zm-4.609-8.369q-.84-1.634-1.6-3.215a106.637,106.637,0,0,0,24.709,10.637q1.572,1.625,3.169,3.221.3,2.061.684,4.019c-2.444.5-4.914.973-7.393,1.421A119.787,119.787,0,0,1,436.218,238.783Zm27.612,17.6q.511,2.1,1.134,4.061c-1.847-1.028-3.676-2.1-5.473-3.209C460.944,256.962,462.393,256.676,463.83,256.385Zm.907-14.941a80.624,80.624,0,0,0,19.5,1.6,42.3,42.3,0,0,0-.461,4.756,124.026,124.026,0,0,1-18.8-3.155Q464.828,243.072,464.737,241.443Zm13.366,8.71c-2.789.656-5.656,1.314-8.576,1.953q-2.1-2-4.178-4.062c-.011-.083-.022-.166-.032-.249A127.091,127.091,0,0,0,478.1,250.153Zm9.384,15.858a41.585,41.585,0,0,0,1.978,3.671q-1.791-1.468-3.6-2.99Zm43.354-44.873a25.265,25.265,0,0,0-1.021,6.623,48.539,48.539,0,0,0-7.971-8.672,95.968,95.968,0,0,1,9.215-13.517,54.872,54.872,0,0,0,11.544-9.06,89.929,89.929,0,0,1,1.761,9.435C538.014,210.685,532.959,215.582,530.841,221.138Zm2.817,1.074c1.721-4.511,5.818-8.684,11.1-12.773a80.088,80.088,0,0,1,.07,13.689,90.311,90.311,0,0,1-12.163,6.23A26.357,26.357,0,0,1,533.659,222.213Zm-.889,10.324.331-.122a77.961,77.961,0,0,0,11.332-5.577,74.892,74.892,0,0,1-1.523,8.131c-3.086-.343-6.29-.788-9.575-1.331Q533.06,233.083,532.77,232.537Zm.241,8.52-.254.089c-.015-.339-.03-.673-.044-1.006Q532.868,240.6,533.011,241.057Zm8.019.308-.066.192-.292-.014C540.792,241.484,540.912,241.423,541.031,241.364Zm2.006,3.317q2.282.118,4.605.245l3.036.163-.525.279a95.189,95.189,0,0,1-9.339,4.541Q542.005,247.376,543.037,244.681Zm4.767-2.766-3.707-.2q.4-1.189.76-2.406c.562-.324,1.115-.651,1.662-.988a112.03,112.03,0,0,0,14.583.357q.235.663.513,1.349a50.139,50.139,0,0,0-5.57,2.316C553.275,242.21,550.523,242.062,547.8,241.915Zm12.673-24.409q.6,1.232,1.16,2.5a45.282,45.282,0,0,1-3.088,4.18c-4.232,3.584-8.355,6.825-12.252,9.54a78.555,78.555,0,0,0,1.4-8.78q1.482-.874,2.993-1.775C553.864,221.279,557.149,219.327,560.476,217.506Zm-.384-6.971q1.263,1.283,2.461,2.458-.4.2-.8.41Q560.958,211.943,560.092,210.535Zm.324,18.325a13.563,13.563,0,0,0-.151,6.873c-3.028.118-6.266.076-9.677-.115a54.479,54.479,0,0,0,9.976-9.2c.778-.656,1.562-1.328,2.346-2.006A12.4,12.4,0,0,0,560.416,228.86Zm-1.328-14.033c-3.388,1.852-6.717,3.831-9.943,5.748l-1.166.693a84.068,84.068,0,0,0-.4-13.932c1.38-.994,2.818-1.985,4.3-2.978A61.852,61.852,0,0,1,559.088,214.828Zm-11.953-10.876q-.4-2.679-.979-5.42,1.919,1.7,3.679,3.563Q548.462,203.022,547.135,203.952Zm-5.367-15.417q-1.343-1.162-2.711-2.342l-.083-.071c3.225-4.5,5.363-8.491,5.986-11.527.071-.352.141-.7.2-1.052,3.617-.688,7.049-1.3,10.266-1.842q-.808,1.982-1.752,3.922c-1.63,1.776-3.3,3.575-4.974,5.386C546.386,183.511,544.059,186.026,541.768,188.535Zm3.872-27.4a111.226,111.226,0,0,1,8.994,7.68c-2.8.48-5.814,1.024-9.01,1.631A40.243,40.243,0,0,0,545.641,161.138Zm9.886-21.475c-3.9-.993-8-1.884-12.226-2.688a96.746,96.746,0,0,0-14.018-12c1.834-2.847,3.7-5.638,5.582-8.325a50.293,50.293,0,0,1,11.209,6.089c3.56,2.629,7.265,5.418,10.695,8.148C556.515,133.8,556.037,136.864,555.526,139.663Zm-17.434-3.625c-3.351-.571-6.759-1.092-10.185-1.569q-.811-.516-1.656-1.009-.823-.479-1.674-.937,1.521-2.518,3.089-5.006A94.374,94.374,0,0,1,538.093,136.037Zm-11.325,1.282a37.409,37.409,0,0,1,11.483,11.353,70.608,70.608,0,0,0-10.036-2.029q-4.2-2.144-8.581-3.992c-.017-.519-.04-1.034-.072-1.544q1.242-2.2,2.531-4.405Q524.4,137,526.768,137.32Zm-7.045,8.634-.08,0a.162.162,0,0,1,0-.031Zm2.785,29.4c-4.752,1.114-9.65,2.33-14.617,3.648a43.179,43.179,0,0,0,7.165-11.568C517.393,170.173,519.905,172.807,522.507,175.353Zm-6.456-34.144a124.056,124.056,0,0,0-12.417-4.054q-.139-1.2-.21-2.439c3.72.334,7.964.746,12.515,1.255q.377,2.129.556,4.449C516.346,140.682,516.2,140.947,516.051,141.209Zm-12.288,8.327a55.477,55.477,0,0,0,3.9,7.759c-1.339,2.79-2.561,5.474-3.643,8.007-4.474,1.011-8.913,1.973-13.306,2.925-6.789,1.47-13.279,2.876-19.356,4.349q.166-.715.3-1.425a51.574,51.574,0,0,0,4.45-5.693c1-1.526,4.054-6.168,1.587-9a4.133,4.133,0,0,0-1.655-1.151A149.357,149.357,0,0,1,503.763,149.536Zm-31.527,8.379c2.4-.178,3.055.375,3.185.524.445.511.231,2.222-1.833,5.363q-.592.9-1.321,1.871C472.392,163.052,472.316,160.466,472.236,157.915Zm-.1-4.489c-.029-5.765.537-11.381,4.048-17.071a98.689,98.689,0,0,1,19.939,2.117q2.42.5,4.812,1.1a45.94,45.94,0,0,0,1.768,7.1A155.178,155.178,0,0,0,472.136,153.427ZM500.6,125a97.077,97.077,0,0,0-12.152-.979c4.718-3.371,9.049-5.1,12.868-5.15C501.009,120.771,500.768,122.81,500.6,125Zm-.177,3.017q-.069,1.649-.084,3.405-2.525-.22-4.983-.421c-1.89-.154-3.48-.284-4.708-.4q-4.672-.43-8.992-.852,1.477-1.428,2.917-2.669A94.662,94.662,0,0,1,500.424,128.022Zm-10.052,5.589c1.235.114,2.836.244,4.739.4,1.54.126,3.314.271,5.28.439q.047.965.135,1.915-1.889-.454-3.794-.846a103.4,103.4,0,0,0-18.421-2.159q.335-.415.691-.829l1.942.187Q485.467,133.153,490.373,133.611Zm-11.482-5.368q-.579.571-1.113,1.142-4.5-.431-8.6-.791a104.729,104.729,0,0,1,10.683-1.29C479.538,127.609,479.216,127.923,478.891,128.243Zm-51.834,15.831-.265.234c-.158-.538-.316-1.07-.474-1.6a18.924,18.924,0,0,1,3.96-5.867,16.758,16.758,0,0,1,4.049-2.918A67.324,67.324,0,0,0,427.057,144.074Zm-.59,10.292q-.781.924-1.528,1.89.522-1.648,1.159-3.271Q426.284,153.675,426.467,154.365Zm-.565,5.66q.731-1.037,1.506-2.032c1.36,5.338,2.582,10.538,3.662,15.268-2.391,1.742-4.968,3.683-7.645,5.771-.339-4.71-.524-8.984-.548-12.863q.083-.8.191-1.59A47.014,47.014,0,0,1,425.9,160.026Zm-2.4,39.528q.528,2.044,1.138,3.993c-2.736.376-5.467.719-8.219,1.031q-.213-1.99-.334-3.954C418.815,200.2,421.317,199.844,423.5,199.554Zm-7.551-1.96q-.063-2.352,0-4.65.767-1.058,1.706-2.18,2.227,1.538,4.559,3.055.27,1.411.575,2.785C420.734,196.88,418.429,197.212,415.949,197.594Zm3.734-9.1q.694-.734,1.463-1.5.175,1.39.377,2.746C420.906,189.33,420.29,188.913,419.683,188.5Zm-3-4.059a63.5,63.5,0,0,1,2.913-12.027c0,.034,0,.068,0,.1a60.005,60.005,0,0,0,.838,8.882Q418.575,182.878,416.681,184.437Zm-2,28.853c.061.313.125.626.189.939q-.28-.375-.554-.753Zm.329,31.284a42.3,42.3,0,0,0,2.411-16.538c.288-.416.585-.827.893-1.239,4.032,11.747,10.111,22.558,17.574,30.885a122.627,122.627,0,0,1-21.221.38,34.537,34.537,0,0,1-2.425-7.392A34.254,34.254,0,0,0,415.015,244.574Zm-2.856-.962q-.225.663-.48,1.315a27.084,27.084,0,0,1,2.062-10.184c.2-.493.415-.98.643-1.467A43.38,43.38,0,0,1,412.158,243.612Zm10.432,17.718a151.869,151.869,0,0,0,15.9-.91,57.141,57.141,0,0,0,7.276,6.168,32.044,32.044,0,0,0,5.809,2.76q1.783,2.759,3.365,5.445c-13.555,3.484-26.042,3.488-33.453-5.835a56.442,56.442,0,0,1-5.268-7.815C418.3,261.271,420.424,261.331,422.591,261.331Zm46.3,1.219a54.887,54.887,0,0,1-2.11-6.775c.618-.129,1.231-.259,1.845-.392,3.837,3.627,7.71,7.106,11.55,10.419q-1.171.487-2.356.974C474.807,265.473,471.822,264.062,468.891,262.55ZM473.28,268l.714.33q-.96.381-1.926.759-.663-1.095-1.27-2.272Q472.029,267.411,473.28,268Zm4.558,2.031c4.438,1.89,8.9,3.537,13.359,4.937q.706.565,1.4,1.12a141.884,141.884,0,0,1-17.548-2.828q-.653-.772-1.267-1.6Q475.823,270.85,477.838,270.026Zm19.02,9.394q1.563,1.211,3.084,2.365a31.3,31.3,0,0,1-5.464.494,25.484,25.484,0,0,1-9.863-1.9,24.106,24.106,0,0,1-5.471-3.189A117.118,117.118,0,0,0,496.857,279.421Zm27.4-6.987a66.407,66.407,0,0,0,7.617-8.1c.1.734.2,1.46.3,2.191a31.592,31.592,0,0,1-7.417,8.955q-1.275,1.1-2.691,2.131-2.01-.1-4.052-.285A58.92,58.92,0,0,0,524.259,272.433Zm8.618-1.32c.351,2.153.73,4.275,1.135,6.333-2.363.195-4.739.286-7.249.284A37.18,37.18,0,0,0,532.878,271.114Zm1.049-14.88q-.08-.754-.156-1.5c.38-.026.761-.065,1.142-.113Q534.429,255.438,533.927,256.234Zm-.443-4.512c-.212-2.352-.387-4.648-.526-6.862.326-.122.645-.243.968-.368a46.912,46.912,0,0,1,1,7.078Q534.2,251.676,533.484,251.722Zm1.3-14.818q2.733.422,5.366.751c-1.487.856-2.925,1.608-4.307,2.241Q535.369,238.374,534.787,236.9Zm5.076,7.617q-.977,2.46-2.1,4.778-.261-2.51-.754-4.909Q538.424,244.452,539.863,244.522Zm-1.809,10.8v-.108q.409-.713.8-1.442a71.4,71.4,0,0,0,12.707-5.741c1.693-.9,3.4-1.8,5.106-2.638,2.587.122,5.182.228,7.776.306q.323.558.67,1.13a1.49,1.49,0,0,0,1.489.713,1.506,1.506,0,0,0,1.194-.924q.237,4.036.112,8.233a1.506,1.506,0,0,0,1.363,1.546,1.4,1.4,0,0,0,.446-.023,51.221,51.221,0,0,1-1.356,6.216,44.719,44.719,0,0,1-20.093,12.192,64.652,64.652,0,0,1-11.224,2.354c-.625-3.126-1.21-6.5-1.744-10.077A26.576,26.576,0,0,0,538.054,255.321Zm30.4-24.637q-.746-2.99-1.709-5.849a25.17,25.17,0,0,1,2.982-2.214Q569.184,226.678,568.45,230.684Zm-1.5-9.831q1.03-.924,2.066-1.87c.121.1.241.207.36.308Q568.088,220.06,566.952,220.853Zm2.02-5.938q-.458-.416-.921-.844c.062-.153.126-.307.186-.46q.971-.434,1.941-.837c.019.325.037.644.054.968Zm-5.949-49.794q-.8-1.128-1.68-2.191a63.833,63.833,0,0,0,1.424-9.464,34.309,34.309,0,0,0,7.588-2.476q1.707-.505,3.391-1.1C571.663,154.3,567.8,159.482,563.023,165.121Zm-1.279,6.7c-.094-.1-.186-.2-.282-.308l.114-.128C561.632,171.53,561.687,171.674,561.744,171.819Zm1.063-26.97c2.6.833,5.08,1.729,7.377,2.692a5.661,5.661,0,0,1-.908.623,62.864,62.864,0,0,1-6.345,1.5Q562.962,147.231,562.807,144.85Zm-.292-3.228a63.274,63.274,0,0,0-1.23-7.025c4.554,3.875,8.094,7.4,9.27,9.875C568.05,143.45,565.359,142.5,562.515,141.621Zm-6.087,8.883c.191-1.07.5-2.525.78-3.872.213-1.014.442-2.1.673-3.246.616.171,1.231.345,1.836.522a59.216,59.216,0,0,1,.192,6.234Q558.176,150.372,556.428,150.5Zm2.029-10.067c.155-.833.306-1.683.449-2.543q.259,1.384.454,2.8Zm-16.145-33.783a53.158,53.158,0,0,1,7.4,8.792,1.619,1.619,0,0,0-.923,1.041c-.236.889-.338,1.267,5.4,6.836q.609,1.294,1.165,2.633-3.387-2.611-7.492-5.64a52.268,52.268,0,0,0-11.234-6.157C538.528,111.528,540.428,109.01,542.312,106.654Zm-25.824-8.045c6.668-3.012,15.421-.742,23.591,6.058-2.085,2.613-4.2,5.43-6.314,8.391a98.412,98.412,0,0,0-26.006-5.207C509.925,103.389,512.857,100.25,516.488,98.609Zm-9.963,12.154a96.183,96.183,0,0,1,25.465,4.816c-1.735,2.5-3.464,5.083-5.169,7.719a110.744,110.744,0,0,0-19.047-10.015q-.927-.381-1.857-.743Q506.206,111.626,506.525,110.763Zm-1.416,4.7c.508.2,1.012.4,1.519.61a108.063,108.063,0,0,1,18.573,9.763q-1.675,2.646-3.306,5.34-2.24-1.055-4.641-1.962c-2.168-6.03-5.71-10.4-10.241-12.272a13.979,13.979,0,0,0-2.092-.676Q505.012,115.858,505.109,115.461Zm-.765,3.764a11.028,11.028,0,0,1,1.517.5c3.18,1.317,5.788,4.184,7.643,8.189a80.722,80.722,0,0,0-9.906-2.423Q503.847,122.185,504.344,119.225Zm-.919,9.29a74.134,74.134,0,0,1,11.455,3.023q.206.666.388,1.359c-4.024-.447-8.017-.843-11.914-1.2Q503.363,130.073,503.425,128.514Zm-.1-17.9c-.1.282-.189.568-.281.859q-1.354-.481-2.713-.922C501.33,110.557,502.33,110.578,503.325,110.611Zm-1.1,3.769q-.181.731-.346,1.5c-4.581-.1-10.682,1.778-18.383,8.173q-3.484.1-7.016.438a104.528,104.528,0,0,0-18.186,3.347,91.632,91.632,0,0,0-13.908.212q2.073-1.836,4.339-3.624c9.828-7.748,25.251-12.287,41.416-13.529A99.639,99.639,0,0,1,502.226,114.38Zm-64.9,1.7c12.156-6.166,26.85-8.476,42.022-6.926-13.227,2.222-24.593,6.678-32.489,12.9a96.363,96.363,0,0,0-7.884,6.913,22.511,22.511,0,0,0-10.813,5.721,20.777,20.777,0,0,0-3.111,3.917c-1.2-3.773-2.451-7.343-3.756-10.649A58.673,58.673,0,0,1,437.326,116.079ZM423.1,142.5a38.994,38.994,0,0,0-2.148,7.776,50.539,50.539,0,0,0-11.993,30.254q-3.179-2.573-6.062-5.206a80.877,80.877,0,0,1,2.4-17.134A67.283,67.283,0,0,1,419.008,130.5C420.456,134.284,421.819,138.336,423.1,142.5Zm-13.2,69.9c-8.688,4.192-17.207,7.326-24.8,8.706a75.6,75.6,0,0,1,9.073-11.631q6.721-.375,13.409-.967Q408.663,210.489,409.9,212.4Zm-2.11-10.41,1.07-.186a17.424,17.424,0,0,0-.134,2.257C408.4,203.377,408.089,202.689,407.79,201.991Zm1.775-3.364q-1.438.244-2.916.5c-.186-.5-.364-1.008-.537-1.518,1.192-1.1,2.4-2.193,3.623-3.278q.21,1.277.467,2.565Q409.834,197.779,409.565,198.627Zm-4.435-4.215a63.293,63.293,0,0,1-2.232-15.053q2.834,2.481,5.965,4.939a63,63,0,0,0,.381,6.445Q407.169,192.559,405.13,194.412Zm-2.758-36.943a85.978,85.978,0,0,0-2.38,15.108q-3.264-3.2-6.027-6.474c-13.673-16.226-16.144-31.63-7.346-45.785,5.637-9.07,10.95-13.26,15.775-12.439,5.83.985,10.957,8.844,15.356,19.465C410.512,135.448,405.3,145.6,402.372,157.469Zm-2.36,45.957c1.584-.308,3.153-.6,4.7-.884q.645,1.551,1.375,3.065-4.437.381-8.889.663Q398.565,204.856,400.012,203.426ZM394.7,204.5q-.978,1.019-1.914,2.027c-2.848.151-5.714.274-8.572.371C387.274,206.13,390.751,205.33,394.7,204.5Zm-25.49,16.26c-5.569-1.776-7.366-3.464-7.213-4.37.1-.585,1.15-2.869,10.939-6.224q8.521-.087,17.006-.473a62.257,62.257,0,0,0-8.52,11.95A29.8,29.8,0,0,1,369.213,220.759ZM391.221,250.3c-6.216-5.035-9.065-12.314-8.708-22.252a10.807,10.807,0,0,1,.9-3.65c9.089-1.307,18.957-5.1,27.821-9.389l.066.188a50,50,0,0,1,3.036,12.013,37.6,37.6,0,0,0-3.392,6.4,29.986,29.986,0,0,0-1.889,16.527,48.977,48.977,0,0,1-4.668,6.315A33.635,33.635,0,0,1,391.221,250.3Zm20.006,7.407q-1.786-.228-3.5-.541c.787-.963,1.546-1.954,2.267-2.974Q410.513,255.94,411.227,257.7Zm38.6,37.987a113.918,113.918,0,0,1-16.349-1.061c-18.864-2.789-44.17-7.23-46.131-13.568-.958-3.1,3.8-7.5,9.306-12.6,2.824-2.615,5.94-5.5,8.852-8.714a68.319,68.319,0,0,0,7.151,1.1,57.539,57.539,0,0,0,6.476,9.983c8.565,10.775,22.53,10.629,37.392,6.668,1.457,2.54,2.8,5,4.083,7.324,1.95,3.552,3.8,6.928,5.731,10.045C460.627,295.422,455.048,295.691,449.824,295.691Zm13.422-12.315c-1.176-2.143-2.41-4.392-3.735-6.717,2.414-.717,4.84-1.52,7.266-2.38,2.138.582,4.358,1.146,6.631,1.674a27.928,27.928,0,0,0,10.046,7.2,31.013,31.013,0,0,0,19.538,1.049q1.33,1,2.746,1.954c-10.891,4.184-23.672,6.93-36.06,8.356C467.514,291.155,465.457,287.408,463.245,283.376Zm50.046,27.552c-23.663,3.324-33.8-2.584-41.668-13.538,18.78-2.284,38.354-7.594,51.307-16.685q1.93.074,3.825.074,4.025,0,7.875-.342c1.74,8.037,3.915,14.892,6.485,18.943A64.6,64.6,0,0,1,513.291,310.928Zm30.23-13.321c-2.051-3.336-4.083-9.45-5.85-17.5a68.182,68.182,0,0,0,11.493-2.447,50.837,50.837,0,0,0,17.072-8.953,64.59,64.59,0,0,1-6.944,12.512A76.016,76.016,0,0,1,543.521,297.607Zm27.564,8.272c-5.241,3.37-13.785,1.414-25.393-5.812-.077-.048-.154-.1-.231-.157a78.985,78.985,0,0,0,16.295-16.952,65,65,0,0,0,9.3-18.825,42.78,42.78,0,0,0,4.991-6.759q.074.576.152,1.176C578.035,272.761,581.452,299.216,571.085,305.879Zm7.449-63.143-.909.025c-.164-2.789-.215-5.153-.187-7.157.387-.161,1.247-.585,2.417-1.224A60.222,60.222,0,0,1,578.534,242.736Zm1.547-11.918c-.955.559-1.806,1.029-2.5,1.386.351-4.684,1.231-6.533,1.8-7.251a1.786,1.786,0,0,0,.442-1.56,1.916,1.916,0,0,0-1.251-1.289,23.972,23.972,0,0,1-3.773-2.343c1.464-.744,3.038-1.5,4.708-2.276A86.854,86.854,0,0,1,580.081,230.818Zm.131-26.668a64.977,64.977,0,0,0-5.876-14.848c11.1-8.433,18.851-17.842,14.405-30.123-1.591-4.4-5.486-8.111-10.99-11.256.025-.08.049-.161.072-.242a1.508,1.508,0,0,0-2.024-1.816q-.552.229-1.107.447-.35-.17-.706-.339c-.054-3.594-4.037-8.342-14.1-16.45.013-.244.025-.486.035-.729,2.736,2.586,6.129,5.77,10.33,9.7,11.973,11.212,27.831,26.064,38.252,36.772q-3.006,3.089-6.435,6.642C595.476,188.742,587.967,196.512,580.212,204.15Zm8.941,5.539c-2.418,1.15-4.738,2.215-6.951,3.231l-.248.114c-.177-1.138-.375-2.292-.593-3.468A24.564,24.564,0,0,1,589.153,209.689ZM618.188,229.3c-7.152,9.28-20.825,12.515-36.433,13.306a64.411,64.411,0,0,0,1.334-10.092c6.907-4.184,17.38-11.792,16.894-18.274a6.4,6.4,0,0,0-3.228-4.937c2.379-1.219,4.836-2.536,7.363-3.98a126.327,126.327,0,0,1,17.664-8.346C625.088,211.274,623.894,221.9,618.188,229.3Zm5.7-36.317q-.746-2.8-1.7-5.754c-.668-2.077-4.1-6.248-9.5-11.93,1.626-1.661,3.216-3.274,4.745-4.8,5.727,5.706,11.863,10.06,18.413,12.19a86.416,86.416,0,0,0,14.98,3.6A149.757,149.757,0,0,0,623.889,192.985Zm12.894-13.165c-6.072-1.974-11.816-6.054-17.219-11.435,6-5.907,10.759-10.152,12.523-10.412,15.639-2.3,29.159,5.4,33.938,13.818,1.985,3.5,2.149,6.7.448,8.778C662.877,184.976,651.777,184.7,636.783,179.82Z" transform="translate(204.503 239.941)" fill="#4e3012"/>
    <path id="Path_2" data-name="Path 2" d="M34.384-35q.112,0,.112.336t-.112.336A7.019,7.019,0,0,0,30.3-32.844a14.237,14.237,0,0,0-3.7,4.06L19.1-17.248V-4.536a6.883,6.883,0,0,0,.336,2.52A1.892,1.892,0,0,0,20.748-.952a12.392,12.392,0,0,0,3.108.28q.168,0,.168.336T23.856,0Q22.12,0,21.168-.056l-3.92-.056-3.864.056Q12.376,0,10.64,0q-.168,0-.168-.336t.168-.336a12.392,12.392,0,0,0,3.108-.28,1.968,1.968,0,0,0,1.344-1.092,6.427,6.427,0,0,0,.364-2.492V-16.352L6.16-29.96a11.725,11.725,0,0,0-2.968-3.416,5.637,5.637,0,0,0-3.248-.952q-.168,0-.168-.336T-.056-35q.672,0,2.016.112l1.96.056q1.9,0,4.816-.112L11.76-35q.112,0,.112.336t-.112.336q-2.912,0-2.912,1.176a2.507,2.507,0,0,0,.56,1.4l9.016,13.216,6.832-10.472a6.607,6.607,0,0,0,1.232-3.3q0-2.016-3.024-2.016-.112,0-.112-.336T23.464-35l2.632.056q2.128.112,3.92.112.952,0,2.3-.112ZM60.7-8.344q0-.112.224-.112a.822.822,0,0,1,.308.056q.14.056.14.168a52.258,52.258,0,0,0-.5,7.392.886.886,0,0,1-.2.644.981.981,0,0,1-.7.2H36.512Q36.4,0,36.4-.336t.112-.336a12.392,12.392,0,0,0,3.108-.28,1.968,1.968,0,0,0,1.344-1.092,6.427,6.427,0,0,0,.364-2.492V-30.464a6.205,6.205,0,0,0-.364-2.464A2.068,2.068,0,0,0,39.62-34.02a11.308,11.308,0,0,0-3.108-.308q-.112,0-.112-.336T36.512-35H59.024a.445.445,0,0,1,.5.5l.112,6.888q0,.168-.28.2t-.336-.14a6.9,6.9,0,0,0-1.792-4.62,5.774,5.774,0,0,0-4.312-1.652H49.5a9.861,9.861,0,0,0-2.884.308,2.072,2.072,0,0,0-1.288,1.064,5.444,5.444,0,0,0-.364,2.268v11.368H51.8a6.335,6.335,0,0,0,3.836-.9,3.611,3.611,0,0,0,1.148-3.024q0-.112.336-.112t.336.112L57.4-18.2q0,1.624.056,2.464l.056,2.688q0,.112-.336.112t-.336-.112a4.5,4.5,0,0,0-1.2-3.528,6.015,6.015,0,0,0-4-1.064H44.968V-4.76a5.82,5.82,0,0,0,.336,2.3,1.89,1.89,0,0,0,1.232,1.008,10.185,10.185,0,0,0,2.8.28h4.48a5.9,5.9,0,0,0,4.48-1.9A10.161,10.161,0,0,0,60.7-8.344ZM72.3-28.448A6.79,6.79,0,0,0,73.36-24.64a10.034,10.034,0,0,0,2.6,2.716q1.54,1.092,4.228,2.716,2.968,1.792,4.564,2.968a10.874,10.874,0,0,1,2.744,3A7.966,7.966,0,0,1,88.648-8.9,9.111,9.111,0,0,1,87.3-4.032,9.183,9.183,0,0,1,83.356-.588,14.219,14.219,0,0,1,77.112.672a16.185,16.185,0,0,1-7.9-1.96.8.8,0,0,1-.364-.392,3.154,3.154,0,0,1-.14-.672l-.728-7.616q-.056-.224.252-.28t.364.168a16.063,16.063,0,0,0,3.332,6.944A8.011,8.011,0,0,0,78.4-.224a7.353,7.353,0,0,0,4.732-1.54q1.932-1.54,1.932-4.9a8.265,8.265,0,0,0-1.12-4.368,10.743,10.743,0,0,0-2.716-3.052,48.2,48.2,0,0,0-4.34-2.828,48.724,48.724,0,0,1-4.228-2.8,10.294,10.294,0,0,1-2.6-2.968,8.073,8.073,0,0,1-1.064-4.2,7.777,7.777,0,0,1,1.484-4.788,8.991,8.991,0,0,1,3.864-2.968,13.179,13.179,0,0,1,5.068-.98,17.007,17.007,0,0,1,6.552,1.344q.84.28.84.952l.392,6.44q0,.224-.28.224a.3.3,0,0,1-.336-.224,11.466,11.466,0,0,0-2.408-5.4,6.768,6.768,0,0,0-5.656-2.492,5.784,5.784,0,0,0-4.676,1.82A6.739,6.739,0,0,0,72.3-28.448ZM117.712.728a10.41,10.41,0,0,1-5.74-1.6,10.6,10.6,0,0,1-3.836-4.312,13.136,13.136,0,0,1-1.344-5.908,10.6,10.6,0,0,1,1.764-6.188,10.934,10.934,0,0,1,4.536-3.808,13.479,13.479,0,0,1,5.628-1.26,10.24,10.24,0,0,1,5.768,1.624,10.748,10.748,0,0,1,3.78,4.284,12.527,12.527,0,0,1,1.316,5.628,11.242,11.242,0,0,1-1.624,6.076A11.134,11.134,0,0,1,123.62-.7,12.5,12.5,0,0,1,117.712.728Zm1.624-1.064A5.654,5.654,0,0,0,124.1-2.52q1.68-2.184,1.68-6.72a15.974,15.974,0,0,0-1.148-6.216,10.192,10.192,0,0,0-3.164-4.284,7.365,7.365,0,0,0-4.592-1.54A5.519,5.519,0,0,0,112.2-19.1a10.246,10.246,0,0,0-1.652,6.272,17.037,17.037,0,0,0,1.12,6.272A10.974,10.974,0,0,0,114.8-2.016,6.9,6.9,0,0,0,119.336-.336ZM147-22.12a4.5,4.5,0,0,1,2.352.672,1.919,1.919,0,0,1,1.12,1.624A1.727,1.727,0,0,1,150-18.592a1.8,1.8,0,0,1-1.372.5,1.806,1.806,0,0,1-.868-.2,6.5,6.5,0,0,1-.868-.588,4.5,4.5,0,0,0-.952-.672,2.354,2.354,0,0,0-1.064-.224,2.591,2.591,0,0,0-1.54.616,20.6,20.6,0,0,0-2.548,2.632V-4.536a5.461,5.461,0,0,0,.42,2.464,2.333,2.333,0,0,0,1.54,1.092,14.237,14.237,0,0,0,3.472.308q.224,0,.224.336T146.216,0q-1.792,0-2.856-.056l-4.144-.056-3.08.056Q135.408,0,134.12,0q-.168,0-.168-.336t.168-.336a6.1,6.1,0,0,0,2.24-.308,1.685,1.685,0,0,0,.98-1.092,8.744,8.744,0,0,0,.252-2.464V-15.624a6.186,6.186,0,0,0-.448-2.744,1.575,1.575,0,0,0-1.512-.84,9.816,9.816,0,0,0-3.024.84H132.5a.314.314,0,0,1-.308-.252.267.267,0,0,1,.14-.364l6.5-3.08.336-.056q.5,0,1.064,1.288a8.347,8.347,0,0,1,.56,3.3v.056a24.547,24.547,0,0,1,3.64-3.668A4.417,4.417,0,0,1,147-22.12ZM204.512-35q.168,0,.168.336t-.168.336A4.185,4.185,0,0,0,201.1-33.04a6.6,6.6,0,0,0-1.064,4.2V.672q0,.112-.28.168a.424.424,0,0,1-.392-.056L173.6-30.408l-.5-.56V-6.1a6.6,6.6,0,0,0,1.036,4.172,4.072,4.072,0,0,0,3.332,1.26q.168,0,.168.336T177.464,0q-1.4,0-2.128-.056l-2.8-.056-2.856.056Q168.9,0,167.384,0q-.112,0-.112-.336t.112-.336a4.134,4.134,0,0,0,3.416-1.26A6.743,6.743,0,0,0,171.808-6.1V-32.312a6.555,6.555,0,0,0-4.424-2.016q-.168,0-.168-.336t.168-.336l2.072.056q.672.056,1.848.056,1.232,0,2.016-.056T174.552-35a.886.886,0,0,1,.644.2,6.765,6.765,0,0,1,.644.868q.672,1.008,1.344,1.848L198.744-5.6V-28.84a7.027,7.027,0,0,0-.98-4.2,3.86,3.86,0,0,0-3.276-1.288q-.112,0-.112-.336t.112-.336l2.184.056q1.68.112,2.744.112,1.008,0,2.8-.112ZM218.736.728A10.41,10.41,0,0,1,213-.868,10.6,10.6,0,0,1,209.16-5.18a13.137,13.137,0,0,1-1.344-5.908,10.6,10.6,0,0,1,1.764-6.188,10.934,10.934,0,0,1,4.536-3.808,13.479,13.479,0,0,1,5.628-1.26,10.24,10.24,0,0,1,5.768,1.624,10.748,10.748,0,0,1,3.78,4.284,12.527,12.527,0,0,1,1.316,5.628,11.243,11.243,0,0,1-1.624,6.076A11.134,11.134,0,0,1,224.644-.7,12.5,12.5,0,0,1,218.736.728ZM220.36-.336a5.654,5.654,0,0,0,4.76-2.184Q226.8-4.7,226.8-9.24a15.974,15.974,0,0,0-1.148-6.216,10.192,10.192,0,0,0-3.164-4.284,7.365,7.365,0,0,0-4.592-1.54A5.519,5.519,0,0,0,213.22-19.1a10.246,10.246,0,0,0-1.652,6.272,17.037,17.037,0,0,0,1.12,6.272,10.973,10.973,0,0,0,3.136,4.536A6.9,6.9,0,0,0,220.36-.336Zm29.68-2.576a.36.36,0,0,1,.336.252q.112.252-.056.364A16.141,16.141,0,0,1,246.6,0a9.055,9.055,0,0,1-3.444.672,6.561,6.561,0,0,1-3.864-1.064,4.01,4.01,0,0,1-1.512-3.528V-17.08a7.63,7.63,0,0,0-.2-2.072,1.182,1.182,0,0,0-.756-.812,6.43,6.43,0,0,0-1.9-.2q-.224,0-.224-.364t.224-.364a5.8,5.8,0,0,0,3.64-1.2,4.462,4.462,0,0,0,1.624-3.052q0-.168.448-.168.392,0,.392.168V-21q2.8-.056,7.784-.56.112,0,.252.42a2.907,2.907,0,0,1,.14.924,2.42,2.42,0,0,1-.2.924q-.2.476-.42.42a34.673,34.673,0,0,0-7.56-.9V-5.824a4.578,4.578,0,0,0,1.148,3.416,4.5,4.5,0,0,0,3.276,1.12,7.122,7.122,0,0,0,4.48-1.568Zm21.616-.224a.388.388,0,0,1,.308.2.3.3,0,0,1,.028.364A12.1,12.1,0,0,1,263.816.672,9.855,9.855,0,0,1,258.272-.84a9.865,9.865,0,0,1-3.5-3.976,11.833,11.833,0,0,1-1.2-5.264,12.129,12.129,0,0,1,1.568-6.076,11.6,11.6,0,0,1,4.284-4.368,11.558,11.558,0,0,1,5.964-1.6,6.518,6.518,0,0,1,4.816,1.68,6.359,6.359,0,0,1,1.68,4.7,3.184,3.184,0,0,1-.14,1.12.486.486,0,0,1-.476.336l-13.888.056q-.112,1.232-.112,2.016a12.711,12.711,0,0,0,2.3,7.9A7.62,7.62,0,0,0,266-1.288a8.284,8.284,0,0,0,2.884-.448,15.148,15.148,0,0,0,2.716-1.4ZM263.536-21a5.338,5.338,0,0,0-3.976,1.6,8.207,8.207,0,0,0-2.072,4.452l10.64-.224a6.646,6.646,0,0,0-1.232-4.34A4.135,4.135,0,0,0,263.536-21Z" transform="translate(582 618)" fill="#4e3012"/>
  </g>
</svg>
